PathFileType	4	(X/Y/Z)	output_15markers.trc
DataRate	CameraRate	NumFrames	NumMarkers	Units	OrigDataRate	OrigDataStartFrame	OrigNumFrames
30	30	11	15	m	30	681	1089
Frame#	Time	Hip			RHip			RKnee			RAnkle			LHip			LKnee			LAnkle			Neck			Head			RShoulder			RElbow			RWrist			LShoulder			LElbow			LWrist
		X1	Y1	Z1	X2	Y2	Z2	X3	Y3	Z3	X4	Y4	Z4	X5	Y5	Z5	X6	Y6	Z6	X7	Y7	Z7	X8	Y8	Z8	X9	Y9	Z9	X10	Y10	Z10	X11	Y11	Z11	X12	Y12	Z12	X13	Y13	Z13	X14	Y14	Z14	X15	Y15	Z15

681	22.666667	-0.000037	0.821383	-0.000177	0.028034	0.809735	-0.086454	0.047571	0.425358	-0.116849	0.200409	0.000000	-0.069777	-0.028016	0.833004	0.086420	0.009719	0.432252	0.115846	0.111024	0.022273	0.227346	-0.123053	1.465271	-0.064435	-0.020081	1.508145	-0.066612	-0.015506	1.274835	-0.157374	0.128301	1.042296	-0.208026	0.141910	0.815534	-0.250469	-0.078880	1.281179	0.096879	-0.020723	1.048903	0.247286	-0.025626	0.804714	0.288592
682	22.700000	-0.000038	0.820722	-0.000179	0.028531	0.809563	-0.085486	0.046015	0.425036	-0.114969	0.194067	0.000000	-0.066780	-0.028510	0.831855	0.085448	0.001613	0.435117	0.117293	0.097821	0.023883	0.239129	-0.125340	1.464716	-0.062389	-0.021977	1.510900	-0.066460	-0.013314	1.273484	-0.150272	0.129545	1.041445	-0.199645	0.148022	0.810138	-0.241185	-0.081874	1.281227	0.100241	-0.029636	1.046761	0.247676	-0.037000	0.800125	0.288177
683	22.733333	-0.000038	0.813534	-0.000178	0.034825	0.800732	-0.081335	0.050437	0.421420	-0.112456	0.191495	0.000000	-0.064377	-0.034808	0.826311	0.081303	-0.001090	0.431326	0.106164	0.078744	0.026754	0.246057	-0.115768	1.457104	-0.065285	-0.021695	1.503654	-0.070754	-0.004998	1.269679	-0.146596	0.137352	1.032875	-0.189872	0.160506	0.814203	-0.238787	-0.075994	1.275784	0.097288	-0.019792	1.043570	0.245146	-0.030071	0.796169	0.279897
684	22.766667	-0.000038	0.812927	-0.000178	0.035412	0.802300	-0.080574	0.047439	0.420193	-0.110337	0.186634	0.000000	-0.064134	-0.035394	0.823529	0.080539	-0.010046	0.431488	0.108292	0.065335	0.023534	0.260496	-0.112020	1.457528	-0.062506	-0.014936	1.506208	-0.065176	-0.002399	1.267096	-0.139232	0.134661	1.030243	-0.185192	0.154463	0.806635	-0.230747	-0.076854	1.275334	0.099632	-0.023235	1.042096	0.246315	-0.035028	0.795867	0.277768
685	22.800000	-0.000038	0.808844	-0.000179	0.041067	0.798112	-0.077463	0.049322	0.418318	-0.105191	0.183758	0.000000	-0.060535	-0.041049	0.819553	0.077430	-0.008413	0.430644	0.099307	0.071217	0.033639	0.273531	-0.109871	1.454230	-0.066278	-0.017802	1.504023	-0.068514	0.003561	1.263884	-0.141998	0.140640	1.026069	-0.181198	0.168428	0.809627	-0.229050	-0.080133	1.270339	0.094270	-0.027223	1.038693	0.245861	-0.039968	0.790199	0.267737
686	22.833333	-0.000039	0.811532	-0.000181	0.045030	0.801975	-0.073806	0.051532	0.420716	-0.101732	0.175844	0.000000	-0.061464	-0.045011	0.821067	0.073771	-0.012365	0.430273	0.089751	0.056898	0.036856	0.280983	-0.102807	1.461265	-0.067691	-0.011837	1.507673	-0.068984	0.008313	1.265724	-0.135979	0.143073	1.027540	-0.177386	0.175134	0.813614	-0.227125	-0.078580	1.273389	0.093425	-0.027195	1.041703	0.244656	-0.043667	0.790004	0.266159
687	22.866667	-0.000039	0.813218	-0.000181	0.048905	0.804355	-0.071392	0.049030	0.423587	-0.098988	0.166868	0.000000	-0.056230	-0.048886	0.822057	0.071356	-0.022348	0.434598	0.083065	0.045915	0.039860	0.283422	-0.099759	1.463125	-0.064868	-0.008110	1.509889	-0.065226	0.015824	1.265305	-0.130791	0.149534	1.027105	-0.166764	0.190708	0.811985	-0.217664	-0.079153	1.274095	0.094313	-0.033724	1.039050	0.240069	-0.053674	0.788340	0.258757
688	22.900000	-0.000039	0.811209	-0.000178	0.049785	0.800831	-0.067163	0.052132	0.420933	-0.091552	0.172595	0.000000	-0.053580	-0.049767	0.821566	0.067128	-0.028874	0.432952	0.076058	0.030316	0.034314	0.274944	-0.094684	1.463496	-0.067808	-0.004856	1.510727	-0.067715	0.019929	1.260795	-0.128843	0.153975	1.020340	-0.159780	0.198868	0.813659	-0.214284	-0.074758	1.274342	0.089111	-0.032347	1.040082	0.236455	-0.052060	0.787127	0.251500
689	22.933333	-0.000039	0.803975	-0.000178	0.050748	0.794931	-0.065321	0.047804	0.422335	-0.090550	0.166492	0.000000	-0.055080	-0.050731	0.813001	0.065288	-0.043163	0.431207	0.071356	-0.000086	0.023179	0.258406	-0.090659	1.456721	-0.068678	0.001929	1.504610	-0.068820	0.026695	1.251219	-0.124054	0.163443	1.015079	-0.150284	0.204127	0.805371	-0.203994	-0.072037	1.266448	0.088884	-0.028632	1.030573	0.232652	-0.046343	0.780930	0.246117
690	22.966667	-0.000037	0.804397	-0.000174	0.049561	0.794817	-0.063873	0.049956	0.422865	-0.085270	0.173268	0.000000	-0.050224	-0.049546	0.813963	0.063844	-0.040093	0.430548	0.074155	0.002177	0.015281	0.242510	-0.087271	1.455107	-0.065655	0.006198	1.502277	-0.066729	0.029014	1.246176	-0.117488	0.159097	1.008693	-0.141894	0.201344	0.803360	-0.196004	-0.070598	1.266233	0.089121	-0.031817	1.030113	0.232987	-0.051616	0.779399	0.242795
691	23.000000	-0.000035	0.804330	-0.000172	0.048873	0.793878	-0.062815	0.046738	0.422536	-0.086985	0.171565	0.000000	-0.049791	-0.048860	0.814770	0.062788	-0.040082	0.434928	0.077642	0.008830	0.014761	0.228325	-0.085694	1.454925	-0.069246	0.008021	1.501336	-0.070277	0.031312	1.243803	-0.114636	0.162112	1.005999	-0.136668	0.205513	0.798090	-0.186204	-0.068343	1.262649	0.089129	-0.031868	1.027715	0.232689	-0.054982	0.778758	0.238110
